<svg xmlns="http://www.w3.org/2000/svg" pointer-events="none" class="leaflet-zoom-animated" width="1242" height="895" viewBox="99 -172 1242 895" style="transform: translate3d(99px, -172px, 0px);"><g><path class="leaflet-interactive" stroke="#201920" stroke-opacity="1" stroke-width="2" stroke-linecap="round" stroke-linejoin="round" fill="none" d="M315 283L314 276L311 273L316 270L315 267L318 262L322 262L325 259L327 259L327 256L330 257L335 254L337 259L343 257L343 259L347 255L348 250L350 248L361 248L360 247L363 246L364 243L369 242L378 236L387 233L389 229L387 223L392 219L390 219L390 217L394 216L394 210L390 202L390 192L387 189L385 190L386 186L390 186L391 184L397 184L405 180L408 183L411 182L414 184L415 181L411 178L411 176L420 150L424 152L425 151L429 154L439 154L442 156L445 153L447 153L450 150L448 134L452 129L460 128L463 122L462 119L464 117L475 117L475 121L473 122L485 135L489 137L494 136L497 140L499 139L501 142L503 142L505 150L510 155L511 158L511 163L509 165L511 169L507 174L507 179L509 183L524 186L537 186L553 197L561 198L560 201L563 205L566 214L572 222L581 221L607 225L622 223L631 225L636 230L643 231L657 237L664 235L664 239L670 240L672 237L698 226L719 227L728 224L734 219L734 217L738 213L745 210L749 206L743 197L744 192L749 185L754 185L758 189L768 191L774 187L778 180L788 180L797 175L801 166L805 164L811 164L810 163L812 160L814 162L821 158L827 159L827 157L830 160L838 160L840 158L838 151L835 150L831 143L826 141L824 137L816 136L811 143L805 139L798 139L794 142L790 138L789 134L793 132L793 128L796 123L795 122L803 105L815 111L825 103L829 103L833 99L831 95L835 89L835 85L838 82L841 73L849 64L847 60L849 56L846 54L841 55L841 51L843 51L844 48L850 42L858 41L865 38L873 39L877 37L889 40L891 43L895 45L898 43L903 45L906 48L905 49L907 49L909 52L908 54L913 58L912 60L914 60L912 62L915 63L915 70L917 72L916 73L918 75L918 79L920 79L919 82L923 88L924 97L927 98L926 105L930 110L940 109L940 111L943 113L948 112L949 115L950 114L953 117L952 118L957 122L962 122L960 126L964 132L962 136L966 142L983 142L984 139L987 138L990 134L993 135L1002 130L1009 131L1010 129L1012 129L1009 132L1007 132L1006 136L1009 142L1001 149L1002 152L1000 154L1000 160L998 162L999 165L994 172L994 176L990 179L990 183L988 186L976 181L969 188L968 187L966 189L969 202L969 212L967 218L959 222L961 226L957 222L957 220L953 218L951 226L949 228L947 226L942 233L932 234L935 239L933 243L925 241L924 242L922 240L921 241L921 237L917 237L915 239L915 243L908 250L900 254L897 256L898 257L896 257L890 262M371 378L368 374L367 369L371 367L373 371L377 369L377 364L375 361L376 360L371 356L370 349L374 345L371 342L367 342L365 340L363 328L356 329L346 325L346 323L341 324L342 323L339 320L340 315L338 312L330 307L327 308L327 306L324 307L322 305L327 304M691 505L689 505L689 501L687 499L691 494L685 494L683 492L680 493L676 491L673 487L670 490L668 490L666 494L662 496L660 494L658 498L655 495L653 495L653 497L651 495L647 499L642 495L638 499L634 500L632 498L631 505L633 507L633 515L630 513L627 514L627 510L625 507L620 511L616 511L614 509L615 508L612 507L612 503L604 503L603 502L606 498L605 495L607 491L602 491L600 489L600 483L598 481L600 479L591 478L589 480L585 480L587 478L585 470L588 469L587 466L592 461L592 459L595 460L595 458L598 457L597 454L599 448L598 434L597 435L595 433L595 435L593 433L592 427L590 427L590 425L588 425L587 422L584 423L582 431L579 432L573 427L565 425L560 427L559 430L547 435L543 439L543 441L539 443L528 442L523 444L523 438L522 436L517 434L518 431L515 428L512 429L512 431L508 428L500 426L494 427L493 430L489 433L489 437L487 439L485 436L485 428L479 430L478 429L478 431L466 431L461 428L457 430L456 427L454 429L455 430L453 430L450 425L444 425L443 420L441 422L438 419L436 419L432 412L428 412L429 413L426 414L422 408L417 407L414 403L412 403L409 400L409 398L408 399L402 397L399 402L400 403L398 403L396 399L385 394L382 390L375 390L374 387L371 386L371 378M704 510L698 508L697 509L693 507L693 505L691 505M707 692L706 680M719 574L725 586M730 621L730 627L727 632M747 722L754 721L759 718M790 679L798 670M824 636L829 624M830 577L830 590M840 541L834 553M862 508L854 519M869 486L872 472" id="国界"/><path class="leaflet-interactive" stroke="#201920" stroke-opacity="1" stroke-width="2" stroke-linecap="butt" stroke-linejoin="round" stroke-dasharray="4,4" stroke-dashoffset="4" fill="none" d="M327 304L330 303L330 301L327 298L327 287L324 284L319 283L317 285L315 283" id="争议"/><path class="leaflet-interactive" stroke="gray" stroke-opacity="1" stroke-width="1" stroke-linecap="round" stroke-linejoin="round" stroke-dasharray="8,4,4,4" fill="none" d="M767 502L768 503L767 502M775 498L774 497L770 501L771 503L778 503L777 497L775 498" id="港澳"/><path class="leaflet-interactive" stroke="#4190da" stroke-opacity="1" stroke-width="1" stroke-linecap="round" stroke-linejoin="round" fill="none" d="M773 500L771 500L772 499L768 495L769 498L767 503L766 504L766 502L765 505L763 505L764 506L761 503L760 506L759 505L754 508L751 507L749 508L750 509L747 510L746 509L735 512L734 514L729 516L733 523L730 526L726 526L723 521L723 515L725 511L722 510L718 512L716 511L716 509L711 508L706 511L706 509L704 510M731 515L731 515M731 515L733 517L729 517L731 515M767 502L767 502M773 500L773 500M773 500L773 500M773 500L773 500M839 446L836 447L838 447L840 450L836 452L837 456L836 459L834 459L836 461L838 459L839 460L837 462L836 461L836 463L836 461L832 461L831 462L833 464L831 464L830 467L831 466L829 466L829 464L829 468L827 468L825 470L827 470L824 473L819 472L819 477L811 485L805 485L804 490L803 489L801 493L797 493L794 495L791 494L789 496L785 494L783 498L780 497L780 495L778 499L776 497L774 499L777 499L775 501L773 500M839 446L839 446M861 415L859 415L861 417L860 420L858 420L860 424L858 426L857 425L854 429L852 429L854 431L851 430L848 434L847 439L843 441L843 443L841 443L842 446L838 448L841 445L839 446M857 310L855 312L850 313L851 316L850 315L847 320L844 321L843 318L842 321L844 321L836 328L836 330L833 333L834 334L831 335L831 337L833 339L834 338L835 341L844 346L849 357L851 367L857 371L857 373L862 378L862 381L854 378L852 380L856 383M856 383L863 389L863 393L865 395L862 392L852 395L860 403L863 403L865 405L861 407L863 409L863 414M857 310L857 310M857 310L857 310M867 273L864 276L864 278L863 277L861 279L860 278L860 280L854 282L853 281L853 279L858 278L858 274L860 274L855 273L854 270L857 269L859 265L861 265L863 261L862 260L864 260L866 256L861 251L852 251L852 253L850 253L846 261L842 263L841 262L835 265L835 267L833 267L833 272L828 277L825 276L823 280L818 275L816 277L816 281L815 280L813 284L815 288L817 287L817 290L824 292L827 291L831 296L832 295L832 297L829 298L828 300L829 303L831 303L833 306L838 305L838 302L840 302L843 299L843 297L849 295L855 299L856 298L858 301L864 299L866 301L871 302L868 307L870 306L869 309L868 308L866 310L862 308L858 311L857 310M857 310L857 310M861 415L861 415M861 415L861 415M861 415L861 415M863 414L861 415M863 414L863 414M865 403L865 403M865 403L865 403M865 403L865 403M867 404L865 403M865 403L863 403L862 401L866 401L867 404M867 404L867 404M867 400L868 399L867 400M867 400L866 399L867 400M867 273L867 273M890 262L890 264L887 267L878 267L867 273M868 393L868 393M868 393L869 394L868 393M870 392L870 392M713 509L713 509M716 516L716 516M720 530L720 530M720 677L725 675L723 675L721 678L720 677M722 551L711 547L711 537L719 530L735 527L738 529L739 533L734 537L732 544L722 551M726 671L727 670L726 671M731 520L731 520M731 515L731 515M732 672L732 672M732 668L733 669L732 668M733 516L731 514L733 514L733 516M733 525L733 525M734 670L734 670M734 517L733 518L734 517M740 579L740 579M743 564L744 563L743 564M743 664L744 663L743 664M744 571L744 571M744 655L744 655M744 675L745 674L744 675M744 672L745 671L744 672M744 571L744 571M745 570L745 570M745 671L746 670L745 671M745 573L745 575L745 573M745 662L745 662M745 570L745 570M746 674L746 674M746 570L746 570M746 574L747 573L746 574M746 571L747 570L746 571M747 576L747 576M748 669L750 669L748 669M749 573L750 572L749 573M749 717L749 717M752 660L752 660M752 660L752 660M752 717L752 717M752 568L752 568M752 580L752 580M752 565L752 565M752 660L753 659L752 660M752 716L752 716M753 659L753 659M753 697L753 697M753 566L753 566M753 567L753 567M754 573L754 573M754 508L755 509L754 508M755 696L755 696M755 577L754 576L756 576L755 577M755 571L756 570L755 571M755 652L755 652M755 697L756 696L755 697M755 695L755 695M755 660L757 660L755 660M756 693L756 693M756 703L756 703M756 509L756 509M756 698L757 699L756 698M756 700L757 699L756 700M757 572L757 572M757 703L757 703M757 508L756 509L757 508M757 573L757 573M758 569L758 569M758 509L758 507L758 509M759 659L759 659M759 509L759 509M759 567L759 567M759 671L760 672L759 671M759 651L760 652L759 651M760 652L760 652M760 704L760 704M760 665L760 665M761 535L761 535M761 650L761 650M761 506L761 506M762 505L762 505M762 506L762 506M763 505L763 505M763 689L763 689M763 669L764 668L763 669M764 668L765 667L764 668M767 503L767 503M767 644L767 644M767 682L767 682M768 658L768 658M768 656L768 656M768 505L768 505M769 581L769 581M769 504L769 504M769 505L769 505M769 505L770 504L769 505M769 674L769 674M770 677L770 677M770 499L770 499M770 503L770 503M770 539L771 538L770 539M770 502L772 500L773 501L770 502M770 646L771 645L771 647L770 646M770 583L770 583M771 580L771 580M771 670L771 670M771 674L777 670L778 671L774 675L771 674M771 660L771 660M771 579L772 578L771 579M772 660L772 660M772 660L773 661L772 660M772 583L772 583M772 646L772 646M773 636L773 636M773 669L774 668L773 669M773 576L774 577L773 576M774 502L773 501L774 502M774 505L774 505M774 654L774 654M774 501L775 502L774 501M774 504L774 504M774 661L774 661M775 576L775 576M775 504L775 504M775 583L775 583M775 644L776 643L775 644M775 649L775 649M775 502L775 502M775 582L775 582M775 650L775 650M775 631L776 630L775 631M776 498L776 498M776 634L776 634M776 500L776 500M776 645L776 645M776 638L776 638M776 630L776 630M777 576L777 576M777 648L777 648M777 581L778 582L777 581M777 648L777 648M777 637L779 637L777 637M778 638L778 638M778 648L778 648M778 668L778 668M778 648L778 648M778 647L778 647M779 631L779 631M779 648L779 648M779 660L780 659L779 660M779 581L779 581M779 647L780 648L779 647M779 630L780 629L779 630M779 499L779 499M780 674L780 674M780 667L780 667M780 643L781 642L780 643M780 630L780 630M780 635L781 634L780 635M780 575L781 574L780 575M780 650L780 650M781 668L781 668M781 633L781 633M781 578L781 578M782 637L782 637M782 678L781 679L782 678M782 670L782 670M782 637L783 636L782 637M783 576L782 577L783 576M783 675L784 676L783 675M783 634L783 634M785 665L787 665L785 665M786 664L786 664M787 644L787 644M788 601L788 601M788 654L789 653L788 654M789 648L789 648M789 664L789 664M791 641L791 641M792 640L792 640M792 641L792 641M792 641L792 641M792 640L793 641L792 640M793 650L794 649L794 651L793 650M793 637L793 637M794 517L794 517M794 515L796 516L794 515M795 654L794 655L795 654M795 646L796 645L795 646M797 651L797 651M798 660L799 659L798 660M800 649L800 649M800 656L800 656M800 649L800 649M800 642L802 642L800 642M801 650L801 650M802 641L802 641M803 572L803 572M803 629L804 630L803 629M803 520L803 520M803 658L803 658M804 519L805 522L803 521L805 521L804 519M804 641L804 641M808 486L806 486L808 486M808 640L808 640M809 638L809 638M809 643L809 643M809 639L811 639L809 639M810 634L809 635L810 634M810 646L810 646M811 634L811 634M813 639L813 639M814 635L814 635M814 586L816 587L814 586M815 638L816 637L815 638M818 474L818 474M819 474L818 473L820 473L819 474M820 475L821 474L820 475M822 473L823 474L821 475L822 473M825 278L825 278M827 276L827 276M827 276L828 277L827 276M834 489L834 489M834 465L836 465L834 465M835 487L835 487M835 484L835 484M835 484L835 484M836 459L836 459M836 453L836 453M836 485L835 486L836 485M836 459L836 459M837 459L837 459M837 447L836 446L838 446L837 447M837 463L837 463M837 463L837 463M838 447L838 447M839 460L839 460M840 453L839 452L840 453M840 455L840 455M840 486L841 485L840 486M840 452L840 452M841 448L841 448M842 448L842 448M842 447L842 447M842 444L842 444M842 325L842 325M844 443L844 443M844 500L844 500M844 443L845 442L844 443M845 296L845 296M846 450L846 450M847 294L848 293L847 294M848 505L847 500L843 497L841 491L841 483L852 467L858 463L862 465L862 473L859 478L856 492L851 498L850 506L848 505M848 293L848 293M849 294L849 294M849 291L849 291M849 257L850 256L849 257M849 289L850 288L849 289M851 287L851 287M851 288L851 288M852 316L851 315L852 316M852 429L852 429M852 436L852 436M853 430L852 429L853 430M854 429L854 429M856 379L863 383L858 383L854 380L855 378L856 379M857 369L857 369M857 496L858 497L857 496M858 503L859 504L858 503M859 505L859 505M859 384L858 383L859 384M860 415L860 415M860 420L860 420M861 386L858 384L860 384L861 386M861 385L864 386L861 385M861 402L861 402M861 419L862 418L861 419M861 419L861 419M862 423L862 423M862 402L861 403L862 402M862 386L862 386M862 423L862 423M862 462L862 462M862 469L862 469M862 401L863 402L862 401M862 387L863 388L862 387M863 399L863 399M863 414L863 414M864 406L863 407L864 406M864 404L864 404M864 401L863 400L864 401M864 395L864 395M864 404L864 404M864 403L864 403M864 403L864 403M865 403L865 403M865 400L865 400M865 399L866 400L865 399M865 400L865 400M865 411L865 411M865 407L864 406L865 407M865 407L865 407M866 404L865 403L866 404M866 405L867 406L866 405M866 405L867 404L866 405M866 407L865 406L867 406L866 407M867 404L868 405L867 404M867 276L867 276M868 403L868 403M868 398L867 397L868 398M869 397L869 397M869 275L869 275M870 274L871 275L870 274M870 394L870 394M871 275L871 275M872 401L872 401M872 278L872 278M872 394L872 394M873 394L872 393L873 394M875 270L874 271L875 270M875 272L875 272M876 278L877 277L876 278M878 458L881 459L877 459L878 458M881 457L881 457M881 455L883 455L881 455M881 460L882 459L881 460M881 458L881 458M882 459L882 459M883 267L883 267M891 455L893 455L891 455" id="海洋"/><path class="leaflet-interactive" stroke="#747569" stroke-opacity="0.6" stroke-width="1" stroke-linecap="round" stroke-linejoin="round" fill="none" d="M496 320L483 315L471 317L469 315L467 317L457 319L454 324L449 326L445 324L438 327L435 330L426 331L421 330L419 326L416 327L413 325L412 328L410 328L408 330L409 331L406 332L398 330L388 331L389 332L385 336L386 337L384 337L384 341L382 343L375 343L374 345M587 369L584 368L583 373L582 372L580 376L576 376L576 381L573 380L572 377L570 377L569 382L569 380L567 379L565 381L563 379L562 380L560 376L561 375L558 372L557 373L559 371L555 371L551 367L548 370L539 370L533 366L525 367L516 361L512 362L503 359L502 357L500 357L500 355L495 349L498 345L496 341L497 336L494 337L493 331L497 325L492 322L496 320M526 278L512 283L506 283L500 287L503 290L504 288L505 297L507 297L513 303L514 306L507 310L507 312L511 314L512 319L510 321L500 318L496 320M633 356L631 356L630 353L627 354L626 351L623 350L622 345L623 344L630 346L632 348L635 348L636 345L638 345L638 343L635 342L635 338L640 333L639 329L640 330L641 327L645 327L643 325L645 323L646 324L646 320L648 318L645 317L645 315L642 312L644 310L641 307L643 305L636 299L636 297L633 298L630 295L628 296L625 293L623 293L621 289L617 289L613 285L615 289L614 290L599 277L597 279L594 278L591 282L580 275L578 277L579 284L575 286L575 290L572 289L570 291L564 287L562 289L558 287L551 288L549 282L544 283L542 281L543 280L536 280L535 276L526 278M572 222L567 226L569 233L566 236L562 237L559 240L557 237L553 241L551 241L542 250L542 254L532 255L530 269L526 275L526 278M662 301L660 301L655 296L651 295L653 289L652 288L657 284L658 280L661 279L659 272L652 273L647 277L641 275L637 276L634 277L636 281L633 283L628 282L626 279L627 278L624 279L622 277L622 272L618 273L616 269L609 265L606 265L615 260L616 254L613 250L603 251L603 253L601 252L599 253L599 255L598 252L596 252L597 254L594 255L594 250L586 242L588 239L581 221M603 413L601 407L601 393L597 387L597 385L600 385L596 381L595 376L592 372L587 369M633 356L631 362L628 359L625 360L627 366L625 368L620 369L617 366L615 368L611 362L610 367L601 362L594 348L590 348L589 346L586 347L587 348L583 352L583 355L587 357L584 361L585 362L583 366L587 369M592 427L593 424L595 428L598 425L597 416L599 416L600 419L602 415L601 414L603 413M673 433L672 428L665 431L662 428L664 426L661 424L662 421L657 420L657 424L652 427L652 432L648 437L646 436L645 441L648 448L644 452L642 450L637 454L632 451L631 452L632 451L629 448L630 445L628 445L629 444L624 438L622 432L620 430L617 431L617 433L615 431L613 427L615 425L610 420L610 418L608 418L606 426L603 423L603 413M675 364L673 368L667 368L665 366L664 367L661 364L663 363L663 359L660 356L660 354L652 352L651 353L645 345L642 348L640 348L640 350L637 349L641 356L638 357L637 360L634 361L633 360L635 357L633 356M700 295L697 294L696 291L687 289L692 279L690 273L688 273L685 274L680 281L680 289L678 291L678 296L662 301M662 301L666 301L665 304L672 307L672 313L675 317L673 321L674 323L685 332L687 330L686 325L689 326L692 321L691 318L686 317L687 316L685 313L687 313L689 305L695 306M673 433L672 437L671 436L669 438L665 438L663 436L659 438L659 436L654 440L654 442L656 442L655 446L657 448L663 446L666 449L664 451L665 452L663 454L664 455L662 459L664 461L665 460L664 461L668 465L667 464L665 466L666 467L664 470M664 470L666 476L666 474L670 474L673 479L682 478L683 485L678 486L676 490M721 454L719 458L714 458L716 458L715 461L713 459L711 463L708 460L705 463L705 465L702 466L698 464L695 460L693 460L693 464L684 467L681 472L672 467L667 472L664 470M685 422L681 419L677 423L677 425L685 429L684 432L673 433M695 306L696 309L701 310L705 314L706 313L711 316L711 330L709 332L702 331L700 333L702 335L700 337L688 334L688 338L685 341L689 345L687 345L688 347L686 349L688 354L686 356L686 354L682 354L678 358L681 361L680 364L675 364M710 374L702 374L697 369L695 371L693 369L694 368L690 366L686 368L679 365L677 367L675 364M718 423L716 427L713 426L713 424L710 423L710 420L708 420L707 415L703 416L698 413L697 418L695 419L695 417L693 417L689 423L686 418L687 421L685 422M685 422L683 417L678 416L678 412L674 412L675 411L673 409L678 404L678 402L676 401L679 398L681 398L683 400L688 399L690 403L693 402L698 395L697 393L701 391L702 392L704 390L704 386L706 385L706 383L710 381L710 379L707 378L707 376L709 376L708 374L710 374M695 306L697 297L700 295M739 273L740 270L738 270L734 274L730 272L728 272L729 273L727 275L725 274L726 277L724 277L723 280L716 286L716 293L715 294L713 292L713 298L705 298L702 295L700 295M710 374L713 375L718 380L722 380M722 380L724 380L723 381L728 384L728 392L725 391L720 396L717 396L717 394L715 394L713 396L712 395L708 397L710 399L710 405L708 405L710 407L710 405L712 405L715 411L714 412L715 411L718 414M718 414L718 423M771 415L768 414L769 409L767 406L762 410L760 410L760 406L758 406L758 408L757 407L753 409L749 405L742 404L737 401L732 402L734 406L733 407L725 406L721 408L718 414M721 454L721 452L718 451L720 447L719 446L721 444L720 443L722 442L720 440L716 440L714 442L713 441L721 434L719 432L720 425L718 425L718 423M750 470L746 470L744 472L742 465L738 468L737 467L744 456L740 455L741 452L739 450L733 450L733 452L730 455L727 454L727 452L724 455L725 456L721 454M738 359L735 362L733 360L730 361L722 359L720 361L724 362L724 364L726 364L729 367L727 369L722 368L722 380M724 511L723 511M724 511L726 506L731 505L730 502L735 501L735 497L742 494L742 486L748 480L750 476L748 472L750 470M725 527L727 527M728 527L731 526M731 341L729 340L729 336L734 327L732 323L731 308L736 299L732 293L732 290L737 285L738 278L741 274L739 273M731 341L731 345L734 348L733 351L736 352L738 359M731 341L744 338L748 334L750 334L750 332L757 333L765 329L768 326L767 325L769 321L769 316M732 526L733 525M788 384L787 385L786 382L782 384L778 382L778 379L775 380L774 378L772 380L772 378L769 377L769 371L765 373L763 371L752 372L749 369L748 370L744 368L738 359M738 360L738 360M774 253L773 256L768 257L766 259L764 259L764 257L761 258L759 261L755 259L750 264L747 270L744 269L739 273M750 470L751 465L757 465L757 467L760 468L761 464L759 464L762 461L766 463L771 462M789 319L785 319L783 321L781 319L769 316M769 316L766 312L770 308L769 305L774 298L769 290L767 290L767 286L770 282L769 279L772 276L774 278L779 270L776 266L774 266L775 265L771 263L778 259L775 257L774 253M796 405L794 407L789 405L787 408L786 407L783 410L782 409L782 411L776 411L771 415M771 462L772 455L773 453L775 453L772 452L773 447L770 446L771 437L768 438L767 435L770 429L772 429L772 427L775 424L773 422L774 419L771 415M771 462L772 461L772 464L778 462L780 464L780 466L776 468L777 469L775 471L777 473L786 470L793 473L792 469L794 468M832 244L822 244L819 238L819 236L821 236L821 232L820 233L817 230L818 227L815 224L811 224L811 226L807 226L805 228L804 234L801 235L799 233L795 237L794 234L790 236L787 239L788 240L782 240L782 232L778 231L778 233L774 237L775 240L771 242L772 245L770 247L774 253M797 341L797 343L800 346L801 345L802 350L797 353L795 349L792 348L790 350L791 355L787 357L787 361L782 362L787 369L791 371L793 369L794 370L794 378L792 380L791 379L788 382L788 384M796 405L796 401L792 394L795 390L788 384M816 289L815 292L813 292L811 295L803 296L800 300L799 299L797 301L798 302L796 302L793 305L794 306L787 313L789 319M797 341L789 341L789 339L787 337L786 338L785 335L781 335L783 331L785 329L786 330L788 326L791 325L796 320L788 324L787 322L789 319M794 468L793 465L795 463L795 459L797 457L796 456L798 456L800 454L799 451L801 449L802 450L801 443L808 439L808 435L806 435L806 433L807 434L812 429L815 432L815 430L821 428L822 425M808 485L805 478L805 474L803 472L804 471L801 472L799 470L800 469L797 470L798 469L794 468M820 411L818 409L814 409L809 404L807 406L808 407L804 409L802 407L805 404L803 402L798 406L796 405M799 340L797 341M832 335L828 335L827 338L825 340L824 339L821 344L819 344L819 340L815 340L815 342L812 343L810 341L808 343L805 336L800 337L799 340M836 388L832 386L827 387L826 386L828 383L824 379L823 380L822 377L822 375L825 374L826 371L824 369L825 368L830 370L831 365L828 363L826 367L822 367L820 365L820 361L817 360L820 353L814 353L814 349L808 348L804 343L802 343L799 340M811 260L809 258L811 254L806 253L803 250L803 248L799 250L800 252L792 256L794 261L788 264L790 266L789 269L793 271L798 270L798 272L800 272L799 271L801 269L804 269M813 284L810 285L803 282L803 278L805 278L804 269M805 268L804 269M805 268L808 269L809 262M809 262L803 264L806 267L805 268M808 485L809 486M811 260L809 262M810 487L811 488M811 260L815 262L815 264L813 264L812 267L814 271L817 270L816 273L818 275M820 411L828 404L828 398L834 398L832 396L836 392L836 388M820 411L818 415L822 419L822 425M846 440L842 436L838 438L835 433L832 436L828 436L828 432L826 430L827 427L825 425L822 425M832 244L834 241L832 239L832 229L835 228L839 230L840 236L842 238L842 236L848 230L852 230L856 226L859 227L864 222L867 223L868 220L870 222L877 221L876 220L878 218L882 217L882 212M839 264L837 262L836 257L831 255L831 253L830 254L827 251L832 244M851 389L848 390L848 392L846 393L844 391L845 390L842 391L838 387L836 388M848 441L849 442M850 287L853 287M863 381L857 380L855 378L853 380L856 382L853 385L854 386L850 388L851 389M855 394L851 389M856 394L858 394M879 154L878 157L877 156L876 158L874 158L872 154L873 153L870 152L868 148L888 128L890 130L889 131L891 135L892 134L892 126L895 117L900 116L900 100L902 100L901 99L903 95L907 92L906 89L909 86L909 84L903 75L898 72L898 74L894 78L891 77L891 79L885 79L883 77L878 80L875 78L874 79L870 65L872 61L870 61L865 56L862 61L854 54L859 50L861 46L857 41M858 394L859 394M861 393L862 393M863 392L865 392M867 391L869 391M871 391L872 390M969 210L964 211L961 208L959 208L958 203L954 205L953 202L947 206L946 205L945 208L941 210L937 200L937 196L935 194L934 197L932 197L933 199L929 201L925 195L926 194L924 192L920 192L921 187L919 184L915 182L909 184L905 181L904 178L902 180L898 180L898 178L892 180L886 174L887 173L885 171L885 165L879 167L876 166M876 166L874 161L882 158L882 156L881 155L881 157L879 154M876 166L875 169L872 169L872 175L870 175L867 171L866 174L862 170L860 170L861 171L859 174L863 176L866 183L864 185L864 193L867 199L869 199L875 194L878 198L878 202L881 208L878 209L878 211L882 212M879 154L879 154M879 154L879 154M879 154L879 154M882 212L883 211L886 214L887 213L891 220L895 216L896 217L895 218L900 228L899 229L903 231L901 233L901 239L903 239L903 243L906 246L904 250L905 251M680 330L681 329L680 330M721 445L721 445M760 406L760 406" id="省界"/><path class="leaflet-interactive" stroke="#3388ff" stroke-opacity="0" stroke-width="3" stroke-linecap="round" stroke-linejoin="round" fill="#eee" fill-opacity="0.5" fill-rule="evenodd" d="M810 255L812 254L805 253L803 248L800 249L800 251L792 256L794 259L788 264L790 266L789 269L793 271L798 270L799 272L802 269L803 270L806 267L803 264L808 263L811 260L809 258L810 255z" id="北京市"/><path class="leaflet-interactive" stroke="#3388ff" stroke-opacity="0" stroke-width="3" stroke-linecap="round" stroke-linejoin="round" fill="#eee" fill-opacity="0.5" fill-rule="evenodd" d="M815 273L817 271L814 271L812 267L812 265L815 264L815 262L812 260L808 263L808 269L804 269L805 278L803 278L803 282L810 285L813 284L815 282L814 281L816 281L816 277L818 275L816 273L812 273L814 272zM815 273L816 272L815 273z" id="天津市"/><path class="leaflet-interactive" stroke="#3388ff" stroke-opacity="0" stroke-width="3" stroke-linecap="round" stroke-linejoin="round" fill="#eee" fill-opacity="0.5" fill-rule="evenodd" d="M812 254L809 255L809 259L815 263L812 264L814 269L813 270L817 270L816 273L823 280L825 276L828 277L833 272L832 271L834 266L839 263L836 260L835 256L832 256L831 253L830 254L827 251L832 244L822 244L819 238L820 236L821 237L821 233L819 233L818 228L814 224L806 226L804 234L801 235L799 233L795 237L793 234L787 239L788 240L782 240L782 232L778 231L778 233L774 237L775 240L771 241L771 247L775 257L778 258L772 263L773 265L777 266L778 272L774 278L771 277L770 283L767 285L767 289L771 292L774 298L769 305L770 309L766 311L767 315L773 318L777 318L779 320L782 319L782 321L785 318L787 320L789 319L787 314L793 308L792 307L795 302L797 302L798 299L800 301L804 295L811 295L815 291L817 288L815 288L812 284L810 285L803 282L803 278L805 278L804 269L802 269L799 272L797 270L792 271L790 269L789 270L790 266L788 264L794 260L792 255L800 252L800 249L803 248L803 250L806 253L812 254zM809 262L803 264L806 267L806 269L808 269L808 263zM815 273L812 273L815 273zM827 276L827 277z" id="河北省"/><path class="leaflet-interactive" stroke="#3388ff" stroke-opacity="0" stroke-width="3" stroke-linecap="round" stroke-linejoin="round" fill="#eee" fill-opacity="0.5" fill-rule="evenodd" d="M731 341L744 338L747 335L750 335L751 332L758 333L768 326L767 325L769 321L769 315L767 315L766 312L769 309L769 306L774 298L770 291L767 290L767 286L770 282L769 279L773 276L773 278L775 277L779 270L771 263L778 259L775 257L773 253L771 257L770 256L766 259L762 258L759 261L755 259L753 260L747 270L744 269L739 273L740 276L737 285L732 290L736 298L734 304L731 307L733 328L729 337L730 341z" id="山西省"/><path class="leaflet-interactive" stroke="#3388ff" stroke-opacity="0" stroke-width="3" stroke-linecap="round" stroke-linejoin="round" fill="#eee" fill-opacity="0.5" fill-rule="evenodd" d="M581 221L588 239L586 241L593 250L594 255L597 254L598 252L599 255L599 253L601 252L603 254L603 252L613 250L616 254L615 260L607 265L616 268L618 273L621 272L623 277L622 278L627 278L626 279L629 282L633 283L636 280L634 277L640 275L646 277L652 273L659 272L661 279L657 284L652 287L653 291L651 292L652 295L659 301L677 297L679 295L678 291L680 289L679 286L682 277L688 273L690 273L692 278L687 288L688 290L695 291L698 294L704 296L704 298L713 298L713 292L715 294L716 293L714 290L726 276L725 275L729 274L729 272L731 274L735 274L738 270L740 270L739 273L742 272L743 269L747 270L749 268L751 262L754 259L759 261L761 258L765 259L773 255L773 251L770 247L772 245L771 242L775 241L774 237L778 233L778 231L781 232L783 235L782 240L788 240L787 239L793 234L796 237L799 233L801 235L804 234L805 228L807 226L815 224L818 227L817 230L819 231L819 233L821 233L821 237L819 237L821 242L826 244L832 244L834 242L832 239L832 231L834 228L836 230L839 230L838 231L841 238L850 229L853 230L856 226L859 227L864 222L867 223L867 221L871 221L873 223L877 220L877 218L882 217L882 212L878 210L880 210L880 206L876 194L871 198L866 198L866 194L864 192L864 184L866 182L863 176L859 174L861 172L860 170L862 170L865 173L868 172L871 175L873 172L872 169L876 168L874 161L882 158L880 154L878 154L878 157L877 156L876 158L874 158L872 154L873 153L868 149L869 145L877 140L889 128L891 135L892 134L892 128L895 117L900 116L899 103L901 101L900 100L902 100L901 99L903 95L907 92L906 89L909 86L909 82L907 82L903 75L898 72L898 74L894 78L892 77L890 79L885 79L883 77L878 80L875 78L873 76L870 65L872 61L865 57L861 61L854 54L859 50L861 46L860 44L857 41L851 42L841 52L842 55L846 54L848 56L847 59L849 61L849 66L841 73L839 77L840 78L835 85L835 89L831 95L833 99L829 103L825 103L815 111L803 105L795 122L796 123L793 127L793 132L789 134L790 138L794 142L798 139L804 139L811 143L816 136L823 137L838 151L840 157L837 160L831 160L828 157L825 159L822 158L815 162L812 160L810 164L801 165L798 173L791 179L779 180L776 185L768 191L759 189L754 185L749 185L743 195L744 200L748 203L749 207L738 213L731 222L718 227L698 226L678 234L672 237L670 240L664 239L664 235L657 237L644 231L637 230L631 225L623 223L607 225L588 223L582 221z" id="内蒙古自治区"/><path class="leaflet-interactive" stroke="#3388ff" stroke-opacity="0" stroke-width="3" stroke-linecap="round" stroke-linejoin="round" fill="#eee" fill-opacity="0.5" fill-rule="evenodd" d="M881 267L888 267L888 265L896 256L897 257L905 251L904 250L906 245L901 238L901 234L903 231L899 229L900 228L898 226L896 216L893 218L893 220L891 220L890 216L886 214L884 210L882 212L881 218L877 218L875 222L868 221L868 223L862 223L860 227L857 226L852 230L851 229L847 231L842 236L842 238L839 234L839 230L835 228L832 230L832 239L834 240L834 242L832 243L828 251L830 254L831 253L832 256L835 255L836 259L840 264L846 260L850 253L852 253L851 252L854 251L861 250L863 254L865 254L866 256L864 258L865 259L862 260L862 263L854 271L857 274L860 273L858 275L859 276L853 280L853 282L858 281L859 278L862 279L861 278L863 278L865 276L864 275L868 272L880 267zM870 274L870 274zM867 276L868 275L867 276zM871 275L871 275zM871 278L872 278zM875 270L875 271zM869 275L869 275zM849 257L850 256L849 257zM875 272L875 272zM876 278L877 277L876 278zM883 267L883 267z" id="辽宁省"/><path class="leaflet-interactive" stroke="#3388ff" stroke-opacity="0" stroke-width="3" stroke-linecap="round" stroke-linejoin="round" fill="#eee" fill-opacity="0.5" fill-rule="evenodd" d="M950 227L952 224L952 220L954 218L956 218L955 219L957 223L959 225L960 224L961 227L961 223L959 223L960 221L967 219L969 211L964 211L961 208L959 208L958 203L954 205L953 202L947 206L946 205L945 208L941 210L940 205L936 199L936 195L934 195L932 198L933 199L929 201L925 195L926 194L924 192L920 192L920 184L915 182L912 184L907 183L904 178L902 180L898 180L898 178L892 180L886 174L887 173L885 171L885 165L877 166L872 169L872 175L870 175L868 172L865 173L862 170L860 170L861 171L859 174L863 176L866 183L864 185L864 193L866 194L866 198L869 199L876 194L881 208L878 209L879 211L882 212L884 210L884 212L891 217L890 220L893 220L893 218L895 216L896 217L895 218L897 224L901 230L900 231L902 231L901 238L906 245L904 250L905 251L907 251L913 245L915 240L919 236L922 240L921 241L922 240L924 242L925 241L932 243L935 241L932 234L942 233L947 227L949 227z" id="吉林省"/><path class="leaflet-interactive" stroke="#3388ff" stroke-opacity="0" stroke-width="3" stroke-linecap="round" stroke-linejoin="round" fill="#eee" fill-opacity="0.5" fill-rule="evenodd" d="M881 167L884 165L886 167L886 173L892 180L896 178L898 178L898 180L902 180L904 178L907 183L912 184L915 182L920 184L920 192L926 193L925 194L929 201L931 201L936 194L936 199L940 204L941 210L943 210L946 205L947 206L953 202L954 205L958 202L958 206L961 209L964 211L969 211L969 202L967 191L965 189L967 187L971 187L973 183L975 183L975 181L989 186L990 179L994 175L997 169L996 168L999 165L998 162L1000 159L1002 151L1001 150L1008 142L1006 137L1007 132L1012 130L1002 130L994 135L990 135L986 138L985 137L983 142L965 142L962 136L963 128L961 129L960 126L962 122L957 122L951 116L951 114L949 114L949 112L944 113L938 109L930 110L926 105L927 98L924 96L923 88L919 83L920 79L918 79L919 78L914 67L914 61L912 60L913 59L910 55L908 55L910 52L908 52L906 49L905 50L906 48L903 45L899 43L896 45L891 43L889 40L887 41L881 37L872 39L865 38L858 41L861 46L854 55L861 61L865 57L872 61L870 65L873 77L878 80L883 77L885 79L891 79L891 77L893 78L897 76L896 75L898 75L899 72L904 76L907 82L909 82L909 86L906 89L907 92L900 101L900 116L895 117L892 127L892 135L889 131L890 130L887 129L876 141L870 144L868 148L872 153L873 152L872 154L874 158L876 158L879 155L878 154L880 154L881 157L881 155L882 156L881 159L875 161L876 165L881 167z" id="黑龙江省"/><path class="leaflet-interactive" stroke="#3388ff" stroke-opacity="0" stroke-width="3" stroke-linecap="round" stroke-linejoin="round" fill="#eee" fill-opacity="0.5" fill-rule="evenodd" d="M851 389L852 392L856 394L862 392L863 390L856 383L853 384L853 388L850 388zM863 381L857 380L855 378L853 380L861 384L863 383zM861 385L858 384L861 386zM861 385L864 386L861 385zM859 384L858 383zM862 387L863 387zM862 387L862 387z" id="上海市"/><path class="leaflet-interactive" stroke="#3388ff" stroke-opacity="0" stroke-width="3" stroke-linecap="round" stroke-linejoin="round" fill="#eee" fill-opacity="0.5" fill-rule="evenodd" d="M810 341L808 343L805 336L799 337L799 339L804 344L806 344L806 347L811 349L812 348L815 351L815 353L819 353L817 359L818 361L820 360L820 364L823 367L826 367L828 363L832 368L830 370L828 368L824 368L826 372L822 375L822 377L828 382L826 385L827 387L839 387L842 391L845 390L844 391L846 393L851 389L850 388L852 388L852 386L856 382L853 380L855 378L857 380L863 381L862 378L857 374L857 371L851 367L851 363L844 345L834 340L835 339L831 337L831 334L828 335L827 338L825 340L824 339L821 344L818 341L819 340L815 340L815 342L812 343L810 341z" id="江苏省"/><path class="leaflet-interactive" stroke="#3388ff" stroke-opacity="0" stroke-width="3" stroke-linecap="round" stroke-linejoin="round" fill="#eee" fill-opacity="0.5" fill-rule="evenodd" d="M823 425L827 427L826 430L828 432L828 436L832 436L836 433L838 438L842 436L846 440L848 437L848 433L854 430L852 430L852 428L853 427L853 429L858 425L859 426L858 421L861 418L859 415L863 415L862 407L865 404L859 402L856 398L854 398L852 395L855 394L851 389L848 390L848 392L846 393L844 391L845 390L842 391L839 387L837 387L835 391L836 392L832 396L834 398L828 398L828 404L818 413L823 425zM865 403L867 403L863 400L862 401L864 403zM866 400L865 401zM866 407L866 407zM868 393L869 394L868 393zM865 399L866 400L865 398zM867 400L867 399zM863 414L864 413zM867 404L868 405L867 404zM868 398L867 397zM861 419L862 418zM866 405L867 405zM861 415L861 415zM854 434L854 434zM862 393L864 395L863 392zM862 423L862 422zM865 407L864 406L865 407zM868 404L868 404zM870 394L869 394zM862 423L862 423zM864 401L863 401zM868 403L867 403zM861 403L862 402L861 403zM852 436L852 436zM863 414L863 413zM864 406L863 407zM862 401L863 402zM863 399L862 399zM865 403L865 403zM866 407L866 406zM853 432L853 432zM872 401L872 401zM866 399L867 399zM866 405L867 404zM872 394L872 393zM853 430L852 430zM854 429L854 429zM868 403L868 403zM873 394L872 393zM865 403L866 403zM863 403L864 403zM852 429L853 429zM868 404L868 404zM865 403L865 403z" id="浙江省"/><path class="leaflet-interactive" stroke="#3388ff" stroke-opacity="0" stroke-width="3" stroke-linecap="round" stroke-linejoin="round" fill="#eee" fill-opacity="0.5" fill-rule="evenodd" d="M802 349L802 351L801 350L798 353L796 353L795 350L791 348L791 355L787 357L787 361L782 362L787 369L790 371L793 369L794 371L794 378L791 379L788 382L788 384L790 387L796 390L792 393L798 406L801 402L803 402L805 404L802 407L804 409L809 404L814 409L818 408L819 411L826 406L828 403L828 399L833 398L832 395L836 391L836 389L833 386L827 386L827 381L825 381L826 380L824 380L822 377L822 375L825 374L825 368L828 368L829 370L831 370L832 368L829 363L827 363L826 366L822 367L820 365L820 361L817 360L819 352L814 353L815 351L812 348L808 348L804 343L802 343L799 340L797 344L799 346L801 345L802 349zM827 383L828 383zM803 407L803 407zM789 370L789 370z" id="安徽省"/><path class="leaflet-interactive" stroke="#3388ff" stroke-opacity="0" stroke-width="3" stroke-linecap="round" stroke-linejoin="round" fill="#eee" fill-opacity="0.5" fill-rule="evenodd" d="M829 467L828 464L830 464L830 466L830 464L833 465L833 463L831 462L832 461L836 461L836 463L839 460L838 459L836 461L834 459L837 454L836 453L839 450L838 447L836 447L837 445L838 446L841 444L840 447L838 448L842 445L841 444L845 440L845 438L843 436L839 438L835 433L833 436L827 435L827 427L823 425L819 429L815 431L813 431L813 429L810 430L810 432L806 434L808 438L805 442L801 444L802 450L801 449L799 451L800 452L796 457L793 466L796 469L800 469L799 470L801 472L804 471L803 472L805 474L806 481L810 485L819 477L819 473L824 473L827 470L825 469L829 468zM822 473L821 474L823 473zM834 465L835 464L834 465zM836 459L836 459zM840 452L840 452zM820 475L820 474zM839 446L840 446zM820 473L818 474L820 474zM840 453L839 452zM836 453L837 452L836 453zM841 448L841 448zM836 459L837 459zM838 447L838 446zM842 447L842 447zM844 443L844 442zM842 444L842 444zM837 446L836 446z" id="福建省"/><path class="leaflet-interactive" stroke="#3388ff" stroke-opacity="0" stroke-width="3" stroke-linecap="round" stroke-linejoin="round" fill="#eee" fill-opacity="0.5" fill-rule="evenodd" d="M820 411L818 409L814 409L809 404L804 409L802 407L805 404L801 402L801 404L798 406L797 405L794 407L789 405L787 408L786 407L783 410L782 409L782 411L773 413L771 415L774 418L773 421L775 425L769 430L767 435L769 438L771 437L769 441L770 440L771 442L771 447L773 447L772 452L775 453L772 454L771 462L773 462L773 464L777 462L781 464L775 471L777 473L786 470L793 473L792 469L794 469L793 465L795 463L795 459L797 457L796 456L799 455L799 452L802 449L802 443L808 439L808 436L806 434L809 433L810 430L813 429L813 431L815 431L817 429L822 428L822 418L818 415L818 413L820 412z" id="江西省"/><path class="leaflet-interactive" stroke="#3388ff" stroke-opacity="0" stroke-width="3" stroke-linecap="round" stroke-linejoin="round" fill="#eee" fill-opacity="0.5" fill-rule="evenodd" d="M799 340L799 337L805 336L809 343L811 341L811 343L813 343L816 340L818 340L820 342L819 343L822 344L822 341L824 339L825 340L828 335L833 334L837 328L836 327L838 327L844 321L842 321L843 318L844 321L848 320L848 316L850 316L852 314L851 313L857 310L858 311L862 308L865 308L864 309L867 310L870 307L868 307L871 302L866 301L864 299L862 301L859 301L854 299L854 297L850 295L843 297L843 299L840 302L838 302L839 303L837 305L833 305L829 303L828 300L829 298L832 297L832 295L831 296L828 291L823 292L816 289L811 295L803 296L800 300L799 299L797 301L798 302L796 302L793 305L793 308L787 313L789 318L787 324L788 325L789 323L796 320L795 322L789 325L781 335L784 335L789 339L789 341L799 341zM849 294L849 294zM848 293L849 293zM852 316L851 316zM849 291L849 290zM851 288L851 288zM842 325L842 324zM847 294L847 293zM849 289L850 288zM857 299L857 299zM857 299L857 299zM857 299L857 299zM789 323L789 323z" id="山东省"/><path class="leaflet-interactive" stroke="#3388ff" stroke-opacity="0" stroke-width="3" stroke-linecap="round" stroke-linejoin="round" fill="#eee" fill-opacity="0.5" fill-rule="evenodd" d="M757 372L763 371L766 373L768 371L770 374L770 378L772 378L772 380L774 378L782 384L786 382L787 385L788 382L794 378L794 369L791 371L786 369L786 365L783 364L782 361L784 362L788 359L787 356L790 355L790 350L792 348L795 350L796 353L798 353L801 350L802 351L802 349L801 346L797 343L797 341L789 341L785 335L782 335L782 333L785 329L786 330L796 321L795 320L788 324L787 322L789 321L789 319L788 320L785 318L782 321L782 319L779 320L777 318L769 316L767 324L768 327L767 326L765 329L763 329L762 331L761 330L758 333L750 332L750 334L745 336L744 338L740 338L737 339L736 341L735 340L731 342L731 345L734 348L733 351L738 355L738 361L740 361L741 365L753 372L757 371zM769 373L769 373z" id="河南省"/><path class="leaflet-interactive" stroke="#3388ff" stroke-opacity="0" stroke-width="3" stroke-linecap="round" stroke-linejoin="round" fill="#eee" fill-opacity="0.5" fill-rule="evenodd" d="M738 361L738 359L735 362L733 359L732 361L725 359L720 361L724 362L724 364L726 364L729 368L723 368L721 371L722 380L729 387L727 392L726 391L719 396L712 395L708 397L710 399L709 405L710 407L710 405L712 406L712 408L714 408L714 412L715 411L717 414L720 411L720 409L725 406L729 406L731 408L734 406L732 402L735 401L746 404L753 409L758 408L758 406L760 406L760 410L762 410L767 405L769 409L769 415L775 413L776 411L781 411L783 410L782 409L783 410L790 405L794 407L796 405L796 401L792 394L795 390L793 388L790 388L785 382L780 383L778 379L775 380L774 378L772 380L772 378L770 378L769 376L769 371L766 373L763 371L754 372L744 368L739 360zM716 395L716 395zM738 360L738 361zM757 372L758 372zM760 406L760 406z" id="湖北省"/><path class="leaflet-interactive" stroke="#3388ff" stroke-opacity="0" stroke-width="3" stroke-linecap="round" stroke-linejoin="round" fill="#eee" fill-opacity="0.5" fill-rule="evenodd" d="M750 470L751 465L757 465L757 467L760 468L760 463L763 461L765 461L766 463L770 463L772 460L772 455L773 453L775 453L772 452L773 448L770 446L771 438L767 436L769 430L772 429L772 427L775 424L773 422L774 419L771 415L768 414L769 408L767 406L762 410L760 410L760 406L758 406L758 408L753 409L747 404L742 404L735 401L732 402L734 406L733 407L731 408L729 406L725 406L720 409L718 414L719 420L717 421L719 421L719 433L721 433L713 441L721 441L720 443L722 445L719 446L720 449L718 451L720 451L720 454L724 456L726 452L728 452L727 454L730 455L734 450L741 451L740 455L743 456L741 462L737 467L738 468L741 465L743 467L744 472L746 470L749 470zM721 445L721 445z" id="湖南省"/><path class="leaflet-interactive" stroke="#3388ff" stroke-opacity="0" stroke-width="3" stroke-linecap="round" stroke-linejoin="round" fill="#eee" fill-opacity="0.5" fill-rule="evenodd" d="M767 502L769 496L768 495L771 499L775 497L777 497L777 499L780 495L782 498L785 494L789 496L791 494L793 495L800 493L801 490L804 489L805 485L806 486L808 484L805 479L806 477L803 473L804 471L801 472L799 470L800 469L798 470L793 468L792 473L789 470L787 470L782 471L782 473L779 472L777 474L774 471L777 469L778 466L780 466L778 462L772 464L773 462L766 463L762 461L761 463L759 463L761 465L761 468L759 468L756 465L752 465L748 472L750 474L750 476L748 477L749 480L745 482L745 484L743 484L743 492L738 497L737 496L735 498L736 501L732 503L731 502L731 506L728 505L725 509L724 508L725 511L723 519L727 526L731 526L733 524L732 520L731 521L729 517L731 514L738 511L750 509L750 507L753 508L757 507L758 505L761 506L762 503L763 506L767 502zM806 487L808 487L807 486zM759 507L758 510L759 508zM755 509L757 509L755 509zM775 504L775 504zM731 514L733 516L734 514L731 514zM754 508L755 508zM732 516L731 515L729 517L732 518L733 516zM769 505L769 504zM769 505L769 505zM762 506L762 506zM770 499L770 499zM774 504L774 504zM774 505L773 504zM804 519L803 520L805 520L805 522L804 519zM761 506L761 506zM731 520L731 520zM734 517L734 518zM733 525L733 524zM794 515L795 516L794 515zM794 517L794 517zM793 495L793 495zM793 495L793 495z" id="广东省"/><path class="leaflet-interactive" stroke="#3388ff" stroke-opacity="0" stroke-width="3" stroke-linecap="round" stroke-linejoin="round" fill="#eee" fill-opacity="0.5" fill-rule="evenodd" d="M721 454L718 458L714 458L716 458L715 461L713 459L711 463L708 460L704 465L701 466L700 463L699 464L695 460L693 460L693 463L691 465L684 467L681 472L673 467L667 472L664 470L664 473L666 475L671 474L673 479L682 478L683 485L679 485L677 487L678 488L676 488L676 490L680 493L683 492L685 494L691 494L687 499L689 501L689 505L690 504L697 509L698 508L708 510L711 508L716 509L717 512L724 511L726 506L730 506L730 502L734 502L734 498L735 499L735 497L739 496L743 492L742 487L743 484L745 484L745 482L749 480L748 477L750 475L750 470L746 470L744 472L742 465L738 468L737 467L742 461L741 458L743 457L740 455L741 452L738 450L734 450L730 455L727 454L727 452L724 454L725 456L721 454zM671 468L671 468zM716 516L716 516z" id="广西壮族自治区"/><path class="leaflet-interactive" stroke="#3388ff" stroke-opacity="0" stroke-width="3" stroke-linecap="round" stroke-linejoin="round" fill="#eee" fill-opacity="0.5" fill-rule="evenodd" d="M728 528L723 528L717 531L711 537L711 547L722 551L728 548L730 545L732 545L734 537L738 533L738 528L728 528zM752 717L752 716zM764 668L765 667L764 668zM749 717L750 717zM743 564L744 563L743 564zM814 586L816 587L814 586zM752 716L752 716zM746 574L747 574zM745 574L744 575L746 573zM771 674L774 675L778 671L777 670L771 674zM772 660L772 660zM772 660L772 660zM749 573L749 572zM746 571L747 571zM752 660L751 660zM770 677L770 677zM774 661L775 661zM752 565L752 565zM780 643L780 642zM793 650L793 649zM779 647L780 647zM769 674L770 674zM720 677L726 675L721 676zM798 660L798 659zM755 577L756 576L754 576zM755 660L756 660zM777 637L779 637L778 636zM754 573L755 573zM800 642L801 642zM753 566L753 565zM744 571L744 571zM789 648L789 647zM780 667L781 668L780 667zM778 668L779 668zM785 665L786 665zM771 670L771 669zM788 654L789 653zM800 656L801 656zM768 658L768 658zM780 635L781 634L780 635zM779 630L779 629zM782 637L783 636zM744 571L745 571zM771 660L771 660zM726 671L727 670L726 671zM803 629L804 630L803 629zM746 570L746 570zM755 571L756 570L755 571zM747 576L747 576zM770 646L771 647L770 645zM781 668L781 668zM801 650L802 650zM787 644L787 644zM804 641L805 641zM780 575L780 574zM795 654L795 655zM768 656L769 656zM780 674L780 674zM778 638L778 637zM815 638L815 637zM775 644L775 643zM780 630L780 629zM802 641L803 641zM732 668L733 669L732 668zM743 664L744 663zM786 664L787 664zM763 669L764 668zM773 636L773 636zM809 643L809 643zM774 576L775 576zM733 670L734 669zM789 664L789 664zM744 675L744 674zM745 662L746 662zM732 672L732 672zM753 659L754 659zM800 649L800 649zM748 669L750 669L749 668zM777 581L778 581zM783 634L784 634zM773 576L774 576zM795 646L796 645zM809 639L811 639L810 638zM782 678L782 679zM759 659L759 659zM746 674L746 673zM752 660L752 660zM755 695L756 695zM779 660L780 659L779 660zM782 670L782 670zM760 665L760 665zM768 682L768 682zM803 572L803 572zM810 646L810 645zM761 535L760 535zM777 576L777 576zM770 539L770 538zM757 703L757 703zM745 671L745 670zM752 660L753 659zM759 671L760 671zM756 698L756 698zM755 697L755 696zM788 601L788 600zM767 644L768 644zM770 583L771 583zM760 704L760 704zM756 703L756 703zM753 697L754 697zM752 568L752 567zM752 580L752 580zM756 700L756 699zM755 696L755 695zM763 689L763 689zM797 651L797 651zM783 675L784 675zM744 672L745 671zM771 578L772 578zM783 576L782 577zM803 658L803 658zM757 572L757 571zM740 530L740 530zM792 641L793 641zM809 638L809 638zM757 573L757 572zM792 640L793 641zM755 652L756 652zM779 581L779 581zM810 634L810 635zM814 635L814 635zM774 654L774 654zM780 650L780 650zM756 693L756 693z" id="海南省"/><path class="leaflet-interactive" stroke="#3388ff" stroke-opacity="0" stroke-width="3" stroke-linecap="round" stroke-linejoin="round" fill="#eee" fill-opacity="0.5" fill-rule="evenodd" d="M685 422L687 422L686 419L688 421L687 423L689 423L691 421L690 419L694 417L697 418L697 414L701 413L702 416L706 415L709 421L711 421L710 424L711 425L712 422L712 426L715 427L719 421L717 421L719 419L719 416L716 413L717 412L714 411L713 407L712 408L712 406L709 405L710 400L708 397L716 394L717 396L719 396L725 391L727 391L729 387L728 384L723 382L723 380L718 380L716 377L708 374L709 375L707 377L710 380L704 387L704 391L697 393L698 394L694 402L689 403L687 399L684 400L679 398L676 401L678 405L676 405L676 407L673 408L675 411L674 412L678 412L678 416L684 418L685 422zM716 395L716 395zM676 401L676 401zM716 395L716 395zM693 402L693 402z" id="重庆市"/><path class="leaflet-interactive" stroke="#3388ff" stroke-opacity="0" stroke-width="3" stroke-linecap="round" stroke-linejoin="round" fill="#eee" fill-opacity="0.5" fill-rule="evenodd" d="M626 439L626 441L629 444L628 445L630 445L629 448L631 452L632 451L637 454L642 450L644 452L648 448L645 441L646 438L653 431L652 428L657 425L657 420L662 421L661 424L664 426L662 428L665 431L672 428L673 433L684 432L685 431L683 427L681 428L677 424L677 422L680 421L681 419L685 423L685 421L683 417L678 416L678 412L674 412L675 411L673 409L678 404L678 402L676 401L679 397L683 400L688 399L689 403L694 402L698 395L697 393L701 391L702 392L704 390L704 386L710 380L707 377L709 375L708 374L710 374L702 374L700 371L695 371L693 369L694 368L690 366L686 368L679 365L677 367L674 364L675 366L673 368L664 367L661 364L663 364L663 358L661 358L659 354L652 352L651 353L646 345L637 350L641 355L641 357L639 357L638 360L637 359L635 361L633 359L635 357L633 355L633 359L631 361L629 361L628 359L625 360L627 367L621 367L619 369L617 366L614 368L614 364L612 364L611 362L609 366L606 364L604 365L604 363L599 360L595 349L590 348L589 346L586 347L587 349L583 351L583 355L587 357L584 361L585 362L583 366L593 372L597 382L600 384L599 386L597 386L601 393L601 407L604 425L606 427L606 423L609 418L614 423L613 424L615 425L613 427L617 433L617 431L620 430L624 438L626 439zM684 400L684 400zM692 402L692 402zM676 400L676 400z" id="四川省"/><path class="leaflet-interactive" stroke="#3388ff" stroke-opacity="0" stroke-width="3" stroke-linecap="round" stroke-linejoin="round" fill="#eee" fill-opacity="0.5" fill-rule="evenodd" d="M718 423L715 427L712 426L713 424L710 423L711 422L710 420L708 420L706 415L703 416L701 415L701 413L697 413L697 417L695 419L694 417L690 419L690 423L687 423L688 420L686 418L687 421L685 423L681 419L677 422L677 424L681 428L684 428L684 432L675 432L673 433L672 437L671 436L669 438L665 438L664 436L660 438L658 437L654 441L656 443L655 447L658 448L660 446L663 446L666 449L664 451L665 452L662 459L664 461L665 460L664 462L668 465L667 464L664 470L666 472L670 470L672 467L675 468L676 470L681 471L684 467L693 464L692 463L695 460L699 464L700 463L701 466L704 465L706 463L705 462L707 462L707 460L711 463L713 459L715 461L716 458L714 458L718 458L721 454L720 451L718 451L720 449L719 446L721 444L721 440L716 440L714 442L713 441L717 436L721 434L719 432L720 425L718 425L718 423zM721 444L720 444zM721 445L721 445z" id="贵州省"/><path class="leaflet-interactive" stroke="#3388ff" stroke-opacity="0" stroke-width="3" stroke-linecap="round" stroke-linejoin="round" fill="#eee" fill-opacity="0.5" fill-rule="evenodd" d="M673 433L672 428L665 431L662 429L663 426L661 422L663 421L657 421L657 424L652 427L652 432L648 437L646 437L645 441L648 448L644 452L642 451L643 450L634 454L632 451L631 452L629 448L630 445L628 445L629 444L624 438L622 432L620 430L617 431L617 433L615 431L613 428L613 426L615 426L613 424L614 423L609 418L607 420L608 421L606 423L606 427L604 425L603 413L601 413L602 416L600 417L600 419L599 416L597 416L597 422L599 425L597 427L595 427L593 424L592 425L593 433L595 435L595 433L598 434L598 457L596 456L595 459L593 459L592 462L588 464L588 469L585 470L585 474L587 476L585 480L586 481L592 478L600 478L598 480L601 488L600 489L602 491L605 490L608 493L606 493L607 494L603 502L610 503L613 505L612 506L613 508L615 508L615 511L621 510L625 507L626 512L632 515L634 513L632 512L633 506L630 501L632 500L632 498L638 499L641 495L647 499L651 495L653 497L656 496L658 498L660 494L663 496L668 493L668 490L673 488L675 488L676 490L676 488L678 488L677 487L679 485L683 485L682 478L675 479L672 477L671 474L666 475L664 473L664 469L668 464L665 462L665 460L664 461L662 459L662 457L663 458L666 449L663 445L662 447L655 447L656 443L654 441L658 436L659 438L664 436L664 438L668 438L671 436L672 437L673 434z" id="云南省"/><path class="leaflet-interactive" stroke="#3388ff" stroke-opacity="0" stroke-width="3" stroke-linecap="round" stroke-linejoin="round" fill="#eee" fill-opacity="0.5" fill-rule="evenodd" d="M496 320L490 317L489 318L487 316L486 317L483 315L477 315L457 319L453 325L452 324L446 326L445 324L437 327L435 330L421 330L419 326L416 327L413 325L412 328L410 328L409 331L406 332L398 330L388 331L389 333L385 336L386 337L384 338L383 342L377 344L374 343L374 345L370 349L370 354L377 364L377 369L374 372L371 369L371 367L367 369L367 374L371 378L371 385L376 390L382 390L387 396L388 395L397 399L398 403L400 403L399 402L402 397L408 399L409 398L409 400L412 403L417 407L422 408L424 412L427 414L431 412L434 418L436 418L440 422L443 420L444 425L450 425L454 430L455 427L458 430L462 428L467 431L478 431L478 429L479 430L484 427L486 429L485 436L488 439L490 437L489 434L496 426L500 426L506 429L507 428L511 431L514 428L516 429L518 432L517 435L520 435L523 438L523 444L529 442L540 443L548 434L559 430L560 427L565 425L573 427L575 430L578 430L580 432L583 429L583 425L585 425L584 424L586 422L591 427L593 425L592 424L594 425L595 428L598 425L597 416L599 416L600 419L601 418L600 417L602 413L602 402L600 394L601 393L597 387L597 385L600 385L596 381L592 372L588 369L582 369L582 374L577 377L575 376L577 380L573 380L572 377L570 377L570 382L567 379L565 381L563 379L562 380L560 376L561 374L559 374L559 372L557 373L558 372L552 368L548 370L547 369L546 371L542 369L539 370L536 367L525 367L523 364L519 364L516 361L509 362L503 359L502 357L500 357L499 353L495 349L497 346L497 338L494 337L493 330L496 329L497 324L492 323L492 321L495 320z" id="西藏自治区" data-spm-anchor-id="a2crr.b71357980.area-selector.i3.578a26c0ZjnssI"/><path class="leaflet-interactive" stroke="#3388ff" stroke-opacity="0" stroke-width="3" stroke-linecap="round" stroke-linejoin="round" fill="#eee" fill-opacity="0.5" fill-rule="evenodd" d="M731 341L729 340L733 328L731 308L736 299L732 291L733 288L735 288L737 285L738 278L740 277L741 274L739 270L734 274L729 272L728 275L725 274L726 276L715 288L714 290L716 292L714 294L713 292L713 298L705 298L701 295L697 297L695 302L696 309L701 310L704 313L711 316L711 330L709 332L701 331L700 332L702 336L698 337L695 337L692 334L687 334L688 339L685 341L689 345L687 345L688 347L686 349L688 354L687 356L679 356L678 359L681 360L679 364L675 364L676 367L679 365L686 368L690 366L693 367L695 371L697 369L703 374L709 373L714 377L722 380L722 368L727 369L728 366L724 364L723 361L721 361L723 359L732 361L733 359L733 361L735 362L738 359L738 355L734 351L734 347L731 345L731 341zM738 356L738 357zM682 366L682 366z" id="陕西省" data-spm-anchor-id="a2crr.b71357980.area-selector.i4.578a26c0ZjnssI"/><path class="leaflet-interactive" stroke="#3388ff" stroke-opacity="0" stroke-width="3" stroke-linecap="round" stroke-linejoin="round" fill="#eee" fill-opacity="0.5" fill-rule="evenodd" d="M687 325L687 329L685 332L683 329L680 330L682 329L679 329L679 327L675 325L673 322L676 319L672 312L673 309L669 307L667 304L665 304L666 301L660 301L655 296L652 295L652 288L657 284L658 280L661 277L659 272L652 273L647 277L641 275L636 276L634 277L636 280L633 283L629 282L626 279L627 278L622 278L622 272L618 273L616 269L609 265L606 265L610 264L612 261L615 260L616 254L613 250L603 251L603 253L601 252L599 253L599 255L598 252L594 255L594 250L586 242L588 239L581 221L572 222L569 224L567 226L569 233L559 240L557 237L553 241L551 241L543 249L542 254L532 255L530 269L526 275L527 278L530 276L534 276L535 280L543 280L542 281L544 283L548 282L551 287L558 287L561 289L564 287L570 291L572 289L575 290L575 286L579 284L578 278L580 275L591 282L593 278L596 279L599 277L603 279L602 280L611 288L615 290L613 286L614 285L618 289L622 291L623 290L623 292L626 295L631 295L637 299L643 306L641 306L641 308L644 311L642 311L647 318L647 322L645 324L644 323L643 325L645 328L644 329L642 327L640 330L639 329L640 332L635 338L635 341L638 344L634 348L624 344L621 347L626 352L626 354L630 353L631 356L634 355L635 357L633 359L635 361L637 359L638 360L639 357L641 357L637 350L643 348L642 347L645 345L649 348L649 352L660 355L663 359L662 364L665 367L673 368L675 364L679 364L681 360L678 359L679 356L688 355L686 350L689 344L685 342L687 339L687 335L691 334L697 337L702 335L700 332L701 331L709 332L711 330L709 323L712 321L712 319L710 315L699 310L694 305L689 305L689 310L685 314L687 314L687 318L692 319L692 324L690 326L687 325zM682 328L682 328zM645 316L645 317zM682 329L682 330zM687 325L687 325z" id="甘肃省"/><path class="leaflet-interactive" stroke="#3388ff" stroke-opacity="0" stroke-width="3" stroke-linecap="round" stroke-linejoin="round" fill="#eee" fill-opacity="0.5" fill-rule="evenodd" d="M645 316L645 314L642 311L644 311L641 307L642 304L635 297L634 298L631 295L628 296L623 292L623 290L622 291L621 289L617 289L614 285L613 286L615 290L611 288L602 280L603 279L599 277L597 279L594 278L591 282L580 275L578 277L578 285L577 284L575 286L575 289L571 289L571 291L567 290L564 287L562 289L558 287L551 288L549 282L542 282L543 281L541 280L536 280L535 276L530 276L524 279L507 283L504 286L500 286L502 290L504 288L505 297L512 301L514 307L510 309L509 308L507 311L508 314L511 314L512 320L509 321L500 318L498 320L493 321L492 323L497 324L496 329L493 330L494 336L497 337L497 347L495 349L499 353L499 355L507 361L516 361L519 364L523 364L525 367L530 366L534 368L535 367L539 370L542 369L546 371L552 367L555 371L561 374L560 377L562 380L566 379L570 382L569 379L571 377L575 381L576 376L580 376L582 372L583 373L582 369L587 369L583 367L583 363L585 363L584 361L587 357L583 355L583 351L585 351L587 349L586 347L589 346L591 348L595 348L599 360L603 362L604 365L605 364L610 366L611 363L614 364L614 368L616 366L618 366L620 369L627 367L625 360L628 359L628 361L631 361L633 357L630 353L627 354L626 351L623 350L622 345L623 344L634 348L638 344L635 341L635 337L640 333L639 329L640 330L641 327L644 329L645 328L643 325L646 324L646 320L648 318L645 317z" id="青海省"/><path class="leaflet-interactive" stroke="#3388ff" stroke-opacity="0" stroke-width="3" stroke-linecap="round" stroke-linejoin="round" fill="#eee" fill-opacity="0.5" fill-rule="evenodd" d="M695 306L697 297L700 296L695 291L687 289L692 279L689 273L684 275L680 281L680 289L678 291L678 296L662 301L666 301L665 304L672 307L674 311L672 311L672 313L676 319L673 322L685 332L687 330L687 325L689 326L692 324L692 320L688 318L685 313L686 314L689 310L687 308L688 305L695 306zM682 329L680 329L682 329zM682 329L682 329z" id="宁夏回族自治区"/><path class="leaflet-interactive" stroke="#3388ff" stroke-opacity="0" stroke-width="3" stroke-linecap="round" stroke-linejoin="round" fill="#eee" fill-opacity="0.5" fill-rule="evenodd" d="M572 222L566 214L562 202L560 202L561 199L555 198L539 187L516 185L510 183L508 181L507 175L511 170L509 165L511 163L511 159L505 149L504 144L500 141L500 139L496 140L493 136L488 137L487 135L485 135L483 131L476 126L477 125L474 122L474 116L470 118L465 117L462 119L462 125L458 129L457 128L450 131L448 135L450 150L447 153L445 153L442 156L440 154L430 154L421 150L420 151L411 175L411 178L415 181L414 184L411 182L408 183L404 181L400 183L399 182L397 184L391 184L384 188L390 192L390 202L394 210L394 216L390 218L392 220L390 220L387 224L389 230L387 230L387 232L381 236L370 240L370 242L369 241L365 243L360 247L361 248L350 248L348 250L347 255L344 258L343 257L337 259L335 255L336 254L331 257L327 256L327 259L317 263L315 266L316 270L311 273L315 278L314 283L316 285L321 283L327 287L327 298L330 301L330 303L322 305L324 307L327 306L327 308L333 308L334 311L338 311L340 314L339 319L342 323L341 324L346 323L346 325L350 327L356 329L363 329L365 339L372 344L384 342L386 337L385 336L390 329L394 331L401 330L406 332L409 331L408 329L410 329L413 325L416 327L419 326L421 330L435 330L438 327L445 324L448 326L452 325L455 323L457 319L462 317L464 318L470 315L471 317L483 315L494 320L498 320L500 318L509 321L512 320L511 315L507 312L507 310L509 308L510 309L514 307L514 305L512 301L506 297L505 288L502 290L500 287L504 286L507 283L518 281L525 278L530 269L532 255L542 254L543 249L551 241L553 241L557 237L559 239L567 235L569 233L567 227L569 224z" id="新疆维吾尔自治区"/><path class="leaflet-interactive" stroke="#3388ff" stroke-opacity="0" stroke-width="3" stroke-linecap="round" stroke-linejoin="round" fill="#eee" fill-opacity="0.5" fill-rule="evenodd" d="M845 499L848 501L848 505L850 506L851 498L857 490L859 479L862 474L861 470L863 467L858 463L851 468L843 482L841 483L841 491L844 498zM892 456L892 455zM880 458L880 458zM836 485L836 486zM882 456L882 455zM835 484L834 485L835 484zM835 487L835 488zM835 484L836 484zM864 459L864 459zM857 496L858 496zM858 503L857 504L859 504L858 503zM864 461L864 461zM834 489L834 489zM844 500L845 500z" id="台湾省"/><path class="leaflet-interactive" stroke="#3388ff" stroke-opacity="0" stroke-width="3" stroke-linecap="round" stroke-linejoin="round" fill="#eee" fill-opacity="0.5" fill-rule="evenodd" d="M772 498L770 502L773 500L775 502L775 500L777 500L774 499L776 498L773 498zM774 502L773 501L774 502zM776 500L776 500zM776 500L776 500zM776 500L776 500zM776 501L776 501zM776 500L776 500zM776 500L776 500zM776 501L776 501z" id="香港特别行政区"/><path class="leaflet-interactive" stroke="#3388ff" stroke-opacity="0" stroke-width="3" stroke-linecap="round" stroke-linejoin="round" fill="#eee" fill-opacity="0.5" fill-rule="evenodd" d="M767 503L767 503zM767 502L767 502z" id="澳门特别行政区"/><path class="leaflet-interactive" stroke="#3388ff" stroke-opacity="0" stroke-width="3" stroke-linecap="round" stroke-linejoin="round" fill="#eee" fill-opacity="0.5" fill-rule="evenodd" d="M869 486L872 472L869 486zM854 519L862 508L854 519zM834 553L841 540L834 553zM830 588L830 576L830 588zM825 633L824 636L829 624L827 628zM790 679L798 670L790 679zM753 721L747 722L759 719L755 720zM707 692L707 680L707 692zM728 631L727 632L730 628L730 622L729 629zM725 586L719 574L724 583z" id="100000_JD"/></g></svg>